<svg width="512" height="511" version="1.1" xmlns="http://www.w3.org/2000/svg" desc="Created with imagetracer.js version 1.2.6" ><path fill="rgb(1,0,0)" stroke="rgb(1,0,0)" stroke-width="1" opacity="0" d="M 0 0 L 511.5 0 L 512 0.5 L 512 62 L 272 62.5 L 286.5 65 L 307.5 73 Q 325.3 83.2 338 98.5 Q 348.5 111 355 127.5 L 361 149.5 L 362 165.5 Q 355.5 185 340.5 196 L 336.5 199 L 353 181.5 L 360 169.5 L 361 158.5 L 356 133.5 L 346 111.5 Q 337.1 96.9 324.5 86 Q 307.9 70.6 281.5 65 L 264.5 62 L 253.5 62 L 252.5 61 L 220.5 61 L 219.5 62 L 208.5 62 L 207.5 63 L 192.5 64 L 165.5 70 Q 130.7 81.7 100.5 98 L 102.5 95 L 150.5 74 L 176.5 66 L 198 62.5 L 0 62 L 0 0 Z " /><path fill="rgb(1,0,0)" stroke="rgb(1,0,0)" stroke-width="1" opacity="0" d="M 134.5 93 L 187.5 93 L 188.5 94 L 198.5 94 L 199.5 95 L 212.5 96 L 245.5 103 L 269.5 111 L 290.5 121 Q 304.5 129.5 315 141.5 Q 323.8 151.7 329 165.5 L 334 182.5 L 335 197.5 L 334 197.5 L 334 189.5 L 332 178.5 L 327 163.5 Q 319.9 146.6 307.5 135 Q 294.6 122.4 276.5 115 Q 256.3 106.2 232.5 101 L 205.5 96 L 187.5 95 L 186.5 94 L 136.5 94 L 135.5 95 L 127.5 95 L 126.5 96 L 102.5 99 L 102.5 98 L 125.5 95 L 126.5 94 L 133.5 94 L 134.5 93 Z " /><path fill="rgb(1,0,0)" stroke="rgb(1,0,0)" stroke-width="1" opacity="0" d="M 183.5 120 L 234.5 120 L 235.5 121 L 243.5 121 L 266.5 125 Q 297.9 133.1 315 155.5 Q 324.2 167.3 329 183.5 L 330 195.5 L 331 196.5 L 331.5 216 Q 346.1 193.1 365.5 175 Q 376.8 164.3 392.5 158 L 407.5 154 L 422.5 154 L 432.5 156 L 453.5 164 L 483.5 171 L 502.5 174 L 508 176.5 L 505.5 180 L 462.5 172 L 448.5 172 Q 441.1 174.1 437 179.5 L 427 195.5 L 400 276.5 L 386 304.5 Q 363.2 346.7 328.5 377 Q 291.6 409.1 242.5 429 L 174.5 452 L 148.5 458 L 102.5 464 L 101.5 462 L 114.5 462 L 122.5 460 L 136.5 459 L 177.5 450 L 209.5 440 L 254.5 423 Q 311 397.5 350 354.5 Q 371.9 329.4 388 298.5 L 400 273.5 L 425 197.5 Q 430.3 183.8 440.5 175 L 447.5 171 L 462.5 171 L 498.5 178 L 507 178 Q 508.3 174.7 503.5 176 L 453.5 165 L 427.5 156 L 408.5 155 Q 376.6 161.6 359 182.5 L 330.5 219 L 330 198.5 L 326 177.5 Q 318.5 157.5 303.5 145 Q 294.2 136.3 281.5 131 L 256.5 124 L 243.5 123 L 242.5 122 L 233.5 122 L 232.5 121 L 186.5 121 L 185.5 122 L 174.5 122 L 173.5 123 L 150.5 125 L 90.5 138 L 41.5 153 L 6 168 Q 4.8 171 8.5 170 L 9.5 169 L 21.5 169 L 22.5 168 L 37.5 168 L 38.5 167 L 81.5 167 L 82.5 168 L 93.5 168 L 94.5 169 L 103.5 169 L 104.5 170 L 113.5 170 L 114.5 171 L 127.5 172 L 128.5 171 L 162.5 169 L 163.5 168 L 208.5 167 L 209.5 168 L 224.5 168 L 225.5 169 L 247.5 170 L 248.5 171 L 282 174.5 L 217.5 176 L 216.5 177 L 193.5 178 L 170.5 182 L 170.5 181 L 192.5 177 L 201.5 177 L 202.5 176 L 264 173.5 L 246.5 172 L 245.5 171 L 236.5 171 L 235.5 170 L 224.5 170 L 223.5 169 L 183.5 168 L 182.5 169 L 165.5 169 L 164.5 170 L 152.5 170 L 151.5 171 L 121.5 173 L 120.5 172 L 93.5 170 L 92.5 169 L 79.5 169 L 78.5 168 L 42.5 168 L 41.5 169 L 24.5 169 L 23.5 170 Q 12.8 168.3 6.5 171 L 5 168.5 L 12.5 164 L 41.5 152 L 82.5 139 L 138.5 126 L 162.5 123 L 163.5 122 L 182.5 121 L 183.5 120 Z " /><path fill="rgb(1,0,0)" stroke="rgb(1,0,0)" stroke-width="1" opacity="0" d="M 168.5 182 L 195.5 200 L 208.5 211 L 270.5 211 L 273.5 210 L 273.5 211 L 221.5 222 L 222.5 220 L 260 212.5 L 208.5 212 Q 190.3 195.5 168 184 L 168.5 182 Z " /><path fill="rgb(1,0,0)" stroke="rgb(1,0,0)" stroke-width="1" opacity="0" d="M 219.5 222 Q 230.1 232.4 237 246.5 L 245 267.5 L 246 280.5 L 247 281.5 L 247 283.5 L 247 292.5 L 246 293.5 L 246 295.5 L 245 311.5 L 235 342.5 L 216 375.5 L 191 406 L 186 409.5 Q 186.8 411.8 184.5 411 Q 168.1 428.1 147.5 441 L 132.5 449 Q 120.5 455 105.5 458 L 99.5 462 L 101.5 459 L 125.5 451 L 147.5 440 Q 175.3 421.8 197 397.5 Q 222.7 370.2 238 332.5 L 245 304.5 L 245 272.5 Q 241.1 254.9 233 241.5 L 219.5 222 Z " /><path fill="rgb(1,0,0)" stroke="rgb(1,0,0)" stroke-width="1" opacity="0" d="M 238.5 456 L 264.5 457 L 265.5 456 L 285.5 456 Q 287.3 458.8 293.5 457 L 294.5 456 L 314.5 456 Q 317.4 458.6 323.5 458 L 324.5 457 L 340.5 457 L 354.5 461 L 361.5 465 L 367.5 465 L 379.5 468 L 392.5 475 L 398.5 475 L 399.5 474 L 419.5 474 Q 421 476.5 426.5 475 L 427.5 474 L 453.5 474 Q 460.7 470.7 472.5 472 L 473.5 473 L 484.5 473 L 485.5 472 L 504.5 472 L 505.5 473 L 512 473 L 512 510.5 L 511.5 511 L 0 511 L 0.5 476 L 7.5 479 L 7 477.5 L 6 471.5 L 8 467 L 15.5 465 L 50.5 480 Q 57.6 482.4 68.5 481 L 92.5 472 L 109.5 471 L 119.5 473 L 128.5 477 L 138.5 477 L 147.5 479 L 163.5 487 L 169.5 488 L 183.5 482 Q 190.2 474.7 200.5 471 L 209.5 469 Q 220.8 459.3 238.5 456 Z M 14 482 L 16 484 L 28 497 L 40 493 L 14 482 Z " /><path fill="rgb(254,205,41)" stroke="rgb(254,205,41)" stroke-width="1" opacity="0.9921568627450981" d="M 226.5 61 L 248.5 61 L 255.5 63 L 264.5 63 L 265.5 64 L 277.5 65 L 289.5 68 Q 316.6 76.4 333 95.5 Q 346.5 110 354 130.5 L 358 144.5 L 360 164.5 L 355 177.5 L 336.5 197 L 335 182.5 L 328 160.5 Q 319.3 142.2 304.5 130 Q 291.5 119 274.5 112 L 255.5 105 L 232.5 99 L 212.5 95 L 206.5 95 L 198.5 93 L 188.5 93 L 187.5 92 L 135.5 92 L 134.5 93 L 126.5 93 L 105.5 97 L 105.5 96 L 140.5 80 L 165.5 71 L 192.5 65 L 206.5 64 L 207.5 63 L 219.5 63 L 226.5 61 Z " /><path fill="rgb(128,0,0)" stroke="rgb(128,0,0)" stroke-width="1" opacity="0.00784313725490196" d="M 0 62 L 198 62.5 L 192 63.5 L 196 64.5 L 192.5 65 Q 191.2 62.8 186.5 64 L 181 65.5 L 184 66.5 L 181.5 67 L 176.5 66 L 172 67.5 L 175 68.5 L 172.5 69 L 168.5 68 L 165 69.5 L 167 70.5 L 165.5 71 L 162.5 70 L 162.5 71 L 164 71.5 L 162.5 72 L 159.5 71 L 159.5 73 L 156.5 72 L 156.5 74 L 153.5 73 L 153.5 74 L 155 74.5 L 153.5 75 L 150.5 74 L 148 75.5 L 148.5 77 L 145.5 76 L 145.5 77 L 147 77.5 L 145.5 78 L 143.5 77 L 143.5 79 L 140.5 78 L 138 79.5 L 138.5 81 L 135.5 80 L 131 82.5 L 131.5 84 L 129.5 83 L 129.5 85 L 126.5 84 L 122 86.5 L 122.5 88 L 120.5 87 L 120.5 89 L 118.5 88 L 118.5 90 L 115.5 89 L 113 90.5 L 115 91.5 L 113.5 92 L 111.5 91 L 111.5 93 L 109.5 92 L 109.5 94 L 107.5 93 L 107.5 95 L 105.5 94 L 105.5 96 L 102.5 95 L 102.5 96 L 106 97.5 L 102 98.5 L 106.5 99 L 113 97.5 L 110 96.5 L 112.5 96 Q 114 98.5 119.5 97 L 136.5 94 L 186.5 94 L 187.5 95 L 205.5 96 L 209.5 95 L 209.5 96 L 206 96.5 L 217.5 98 L 220.5 97 L 220.5 98 L 218 98.5 L 227.5 100 L 230.5 99 L 230.5 100 L 228 100.5 L 232.5 101 L 234.5 100 L 234.5 101 L 233 101.5 L 240.5 103 L 242.5 102 L 242.5 103 L 241 103.5 L 248.5 105 L 250.5 104 L 250.5 105 L 249 105.5 L 251.5 106 L 253.5 105 L 253.5 106 L 252 106.5 L 263.5 110 L 265.5 109 L 265.5 110 L 264 110.5 L 266.5 111 L 268.5 110 L 268.5 111 L 267 111.5 L 271.5 113 L 273.5 112 L 273.5 113 L 272 113.5 L 276.5 115 L 278 114.5 L 277.5 116 L 279.5 115 L 279.5 117 L 281.5 116 L 281.5 118 L 283.5 117 L 283.5 119 L 285.5 118 L 285.5 120 L 287.5 119 L 287.5 121 L 289.5 120 L 289.5 122 L 291.5 121 L 292.5 124 L 294.5 123 L 295.5 126 L 297.5 125 Q 301.2 127 299.5 129 L 301.5 128 L 306.5 135 L 308.5 136 Q 309.7 133.7 311 136.5 L 310 138.5 L 314.5 143 Q 315.8 140.8 317 143.5 L 316 145.5 L 320 147.5 L 319 149.5 L 322 150.5 L 320 150.5 L 321.5 153 L 323 152.5 L 322 154.5 L 325 155.5 L 323 155.5 L 325.5 161 L 326.5 159 L 327 160.5 L 326 162.5 L 328 162.5 L 327 165.5 L 328.5 168 L 329.5 166 L 330 167.5 L 329 170.5 L 330 170.5 L 330.5 169 L 331 170.5 L 330 174.5 L 331.5 178 L 332.5 176 L 333 177.5 L 332 182.5 Q 334.8 188.8 334.5 198 L 335.5 193 L 336.5 197 L 339.5 196 L 351 185.5 L 350 183.5 L 355 180.5 L 354 178.5 L 357 177.5 L 356 175.5 L 359 174.5 L 360 170.5 L 359 168.5 L 360 168.5 L 360.5 170 Q 363.1 165.1 362 156.5 L 358.5 140 L 357.5 142 L 357 140.5 L 358 136.5 L 356.5 133 L 355.5 135 L 355 133.5 L 356 130.5 L 355 130.5 L 354.5 132 L 354 130.5 L 355 127.5 L 353.5 125 L 352 125.5 L 353 122.5 L 348.5 115 L 347 115.5 L 348 113.5 L 346 113.5 L 347 111.5 L 344 110.5 L 346 110.5 L 344.5 108 Q 343.3 110.3 342 107.5 L 344 107.5 L 342.5 105 Q 341.3 107.3 340 104.5 L 341 102.5 L 337 100.5 L 338 98.5 Q 336.3 94.3 334.5 97 L 324 86.5 Q 326.3 85.2 323.5 84 L 321.5 85 Q 317.8 83 319.5 81 L 317.5 82 L 315.5 78 L 313.5 79 L 312.5 76 L 310.5 77 L 310.5 75 L 308.5 76 L 307.5 73 L 301.5 71 L 300 71.5 L 300.5 70 L 297.5 71 L 297.5 70 L 299 69.5 L 296.5 69 L 295 69.5 L 295.5 68 L 291.5 69 L 291.5 68 L 293 67.5 L 290.5 67 L 288.5 68 L 288.5 67 L 290 66.5 L 272 62.5 L 512 62 L 512 472.5 Q 511.8 473.8 505.5 473 L 504.5 472 L 485.5 472 L 484.5 473 L 473.5 473 L 472.5 472 L 460.5 472 L 453.5 474 L 427.5 474 Q 426 476.5 420.5 475 L 419.5 474 L 399.5 474 Q 398 476.5 392.5 475 L 379.5 468 L 367.5 465 L 361.5 465 L 345.5 458 L 340.5 457 L 324.5 457 L 319.5 458 L 314.5 456 L 294.5 456 Q 292.8 458.8 286.5 457 L 285.5 456 L 265.5 456 L 264.5 457 L 256.5 457 L 255.5 456 L 238.5 456 L 224.5 460 L 209.5 469 Q 198 470.5 190.5 476 L 179.5 484 L 166.5 488 L 147.5 479 L 138.5 477 L 128.5 477 L 119.5 473 L 109.5 471 L 98.5 471 L 82.5 475 L 73.5 480 L 54.5 481 Q 33.1 474.9 15.5 465 L 12.5 465 L 8 467 Q 5.4 469.3 6 475.5 L 9 479.5 L 7.5 479 L 0 475.5 L 0 62 Z M 184 120 L 183 121 L 173 121 L 172 122 L 150 124 L 119 131 L 122 131 L 122 132 L 119 131 L 110 133 L 113 133 L 113 134 L 110 133 L 102 135 L 105 135 L 105 136 L 102 135 L 98 136 L 100 136 L 100 137 L 98 136 L 94 137 L 96 137 L 96 138 L 94 137 L 90 138 L 92 138 L 92 139 L 90 138 L 79 141 L 81 141 L 81 142 L 79 141 L 75 142 L 77 142 L 77 143 L 75 142 L 72 143 L 74 143 L 74 144 L 72 143 L 68 144 L 70 144 L 70 145 L 68 144 L 65 145 L 67 145 L 67 146 L 65 145 L 62 146 L 64 146 L 64 147 L 62 146 L 50 150 L 52 150 L 52 151 L 50 150 L 47 151 L 49 151 L 49 152 L 47 151 L 44 152 L 46 152 L 46 153 L 44 152 L 41 153 L 43 153 L 43 154 L 40 153 L 40 155 L 39 154 L 36 155 L 38 155 L 38 156 L 35 155 L 35 157 L 34 156 L 31 157 L 33 157 L 33 158 L 30 157 L 30 159 L 29 158 L 26 159 L 28 160 L 26 161 L 23 160 L 23 162 L 22 161 L 17 163 L 19 163 L 19 164 L 16 163 L 16 165 L 15 164 L 12 165 L 14 166 L 12 167 L 9 166 L 8 169 L 10 170 L 42 169 L 43 168 L 79 168 L 80 169 L 93 169 L 94 170 L 112 171 L 113 172 L 121 172 L 122 171 L 128 172 L 122 172 L 122 173 L 152 171 L 153 170 L 165 170 L 166 169 L 183 169 L 184 168 L 224 169 L 225 170 L 236 170 L 237 171 L 246 171 L 247 172 L 264 174 L 216 175 L 215 176 L 203 176 L 202 177 L 193 177 L 179 180 L 183 180 L 183 181 L 179 180 L 171 181 L 171 183 L 170 183 L 168 183 Q 167 185 170 184 L 172 184 L 172 186 L 174 185 L 175 188 L 177 187 L 178 190 L 180 189 L 179 191 L 182 192 L 182 190 L 183 193 L 185 192 L 186 195 L 188 194 L 189 197 L 191 196 L 192 199 L 194 198 L 196 202 L 198 201 Q 201 203 200 205 L 202 204 Q 206 207 205 209 L 207 208 Q 208 211 213 211 L 208 212 L 260 213 L 251 215 L 254 215 L 254 216 L 251 215 L 246 216 L 249 216 L 249 217 L 246 216 L 227 220 L 230 220 L 230 221 L 227 220 Q 222 219 221 222 L 222 224 L 221 226 Q 222 228 224 226 L 227 230 L 226 229 L 225 231 L 229 233 L 228 235 L 231 236 L 230 238 L 233 239 L 232 238 L 231 240 L 234 241 L 233 243 L 235 242 L 237 246 L 235 246 L 237 249 L 238 247 L 239 250 L 238 253 L 240 252 L 239 254 L 241 258 L 241 257 L 242 257 L 241 259 L 242 261 L 242 260 L 243 260 L 242 262 L 243 264 L 243 263 L 244 263 L 243 265 L 245 273 L 245 305 L 243 312 L 244 317 L 244 319 L 243 317 L 242 317 L 243 321 L 243 322 L 242 320 L 240 324 L 241 328 L 241 329 L 240 328 L 239 328 L 240 331 L 240 332 L 239 331 L 238 331 L 239 334 L 239 335 L 238 333 L 236 336 L 237 339 L 235 339 L 236 341 L 236 342 L 235 340 L 229 352 L 231 352 L 230 354 L 227 355 L 228 357 L 226 357 L 227 359 L 226 358 L 224 361 L 226 361 L 225 363 L 222 364 L 223 366 L 222 365 L 220 368 L 222 368 Q 221 370 220 368 L 218 371 L 220 371 Q 219 373 218 371 L 216 374 L 218 374 Q 217 376 216 374 L 214 377 L 216 377 Q 214 381 213 378 L 211 381 L 213 381 L 208 384 L 209 386 Q 207 390 206 387 L 203 391 L 205 391 L 202 394 L 201 393 L 197 398 L 199 398 L 192 405 L 191 404 Q 188 405 190 407 L 187 410 L 186 409 Q 183 410 185 412 L 179 418 L 177 417 L 172 424 L 170 423 L 167 428 L 165 427 L 162 432 L 160 431 L 158 435 L 156 434 L 155 437 L 153 436 L 152 439 L 150 438 L 149 441 L 147 440 L 147 442 L 145 441 L 144 444 L 144 442 L 141 443 L 140 446 L 138 445 L 138 447 L 136 446 L 136 448 L 135 447 L 130 449 L 132 450 L 130 451 L 127 450 L 127 452 L 126 451 L 123 452 L 125 452 L 125 453 L 123 452 L 118 454 L 120 454 L 120 455 L 118 454 L 115 455 L 117 455 L 117 456 L 115 455 L 112 456 L 114 456 L 114 457 L 112 456 L 105 458 L 107 458 L 107 459 L 104 458 L 104 460 L 102 459 L 101 462 L 103 464 L 137 460 L 134 459 L 134 458 L 138 459 L 143 459 L 140 458 L 140 457 L 144 458 L 154 457 L 178 451 L 177 450 L 177 449 L 179 450 L 185 449 L 184 448 L 184 447 L 186 448 L 188 448 L 187 447 L 187 446 L 189 447 L 195 446 L 194 445 L 194 444 L 196 445 L 198 445 L 197 444 L 197 443 L 199 444 L 201 444 L 200 443 L 200 442 L 202 443 L 204 443 L 203 442 L 203 441 L 205 442 L 207 442 L 206 441 L 206 440 L 208 441 L 210 441 L 209 440 L 209 439 L 211 440 L 215 439 L 214 438 L 214 437 L 216 438 L 218 438 L 217 437 L 217 436 L 219 437 L 221 437 L 220 436 L 220 435 L 222 436 L 229 434 L 228 433 L 228 432 L 230 433 L 232 433 L 231 432 L 231 431 L 233 432 L 235 432 L 233 431 L 236 429 L 238 430 L 240 430 L 239 429 L 239 428 L 241 429 L 245 428 L 244 427 L 244 426 L 246 427 L 250 426 L 249 425 L 249 424 L 252 425 L 251 424 L 253 424 L 255 424 L 253 423 L 256 421 L 259 422 L 259 420 L 261 421 L 261 419 L 263 420 L 263 418 L 265 419 L 265 417 L 267 418 L 267 416 L 269 417 L 269 415 L 271 416 L 271 414 L 273 415 L 273 413 L 275 414 L 274 413 L 278 410 L 277 412 L 279 412 L 280 409 L 282 410 L 282 408 L 284 409 L 285 406 L 287 407 L 287 405 L 289 406 L 290 403 L 292 404 L 291 403 L 295 400 L 297 401 L 298 398 L 300 399 L 302 395 L 301 397 L 303 397 L 305 393 L 307 394 L 308 391 L 310 392 Q 308 390 312 388 L 314 389 Q 312 387 316 385 L 318 386 Q 316 384 320 382 L 322 383 Q 324 382 322 381 L 328 375 L 327 377 L 329 377 Q 333 375 330 374 L 350 354 L 351 355 L 353 352 L 351 352 L 356 347 L 357 348 L 358 346 L 356 346 L 361 343 L 360 341 L 364 339 L 363 337 Q 364 334 366 336 L 367 334 L 365 334 Q 367 330 369 332 L 368 330 Q 369 327 371 329 L 372 327 L 370 327 Q 371 324 373 326 L 374 324 L 372 324 Q 373 321 375 323 L 376 321 L 374 321 Q 375 318 377 320 L 379 317 L 378 315 L 380 315 L 382 311 L 380 311 L 383 310 L 382 308 L 384 308 L 383 306 L 385 306 L 388 300 L 386 300 L 389 299 L 388 297 L 390 297 L 389 295 L 391 295 L 397 284 L 396 281 L 398 281 L 397 279 L 398 277 L 399 279 L 400 277 L 399 274 L 400 272 L 400 274 L 401 274 L 400 271 L 401 269 L 402 271 L 406 260 L 405 256 L 406 254 L 406 256 L 407 256 L 406 253 L 407 251 L 407 253 L 408 253 L 407 250 L 408 248 L 408 250 L 409 250 L 408 247 L 409 245 L 409 247 L 410 247 L 409 244 L 410 242 L 410 244 L 411 244 L 410 241 L 411 239 L 411 241 L 412 241 L 411 238 L 412 236 L 412 238 L 413 238 L 412 235 L 413 233 L 413 235 L 414 235 L 413 232 L 414 230 L 415 232 L 420 218 L 419 215 L 420 213 L 420 215 L 421 215 L 420 212 L 421 210 L 421 212 L 422 212 L 421 209 L 422 207 L 423 209 L 424 206 L 423 203 L 424 201 L 424 203 L 425 203 L 424 200 L 425 198 L 426 200 L 427 198 L 426 195 L 428 195 L 427 193 L 429 193 L 431 189 L 429 189 L 432 188 L 431 186 L 434 185 L 433 183 Q 434 180 436 182 L 437 180 L 436 180 L 440 175 L 439 177 L 441 177 L 443 173 L 445 174 L 444 173 L 446 173 Q 452 170 463 172 L 464 171 L 467 172 L 463 173 L 476 175 Q 480 176 482 174 L 484 175 L 481 176 L 506 180 Q 509 178 505 177 L 507 176 L 507 175 L 503 176 L 500 176 L 503 175 L 503 174 L 498 175 L 495 175 L 498 174 L 488 171 L 483 172 L 480 172 L 483 171 L 479 169 L 474 170 L 471 170 L 474 169 L 474 168 L 469 169 L 466 169 L 469 168 L 469 167 L 465 168 L 462 168 L 465 167 L 465 166 L 461 167 L 458 167 L 461 166 L 461 165 L 457 166 L 454 166 L 457 165 L 457 164 L 453 165 L 451 165 L 453 164 L 453 163 L 450 164 L 448 164 L 450 163 L 450 162 L 447 163 L 445 163 L 447 162 L 447 161 L 444 162 L 442 162 L 444 161 L 444 160 L 441 161 L 441 159 L 439 160 L 437 160 L 439 159 L 423 154 L 408 154 L 398 157 L 400 157 L 400 158 L 398 157 L 395 158 L 397 158 L 397 159 L 395 158 L 392 159 L 394 159 L 394 160 L 391 159 L 391 161 L 389 160 L 389 162 L 388 161 L 384 162 L 383 165 L 381 164 L 381 166 L 379 165 L 378 168 L 376 167 Q 377 169 374 171 L 372 170 L 372 172 L 368 176 L 366 175 L 362 179 L 363 180 L 360 183 L 359 182 L 354 188 L 356 188 L 352 192 L 351 191 L 348 195 L 350 195 L 345 198 L 346 200 Q 344 203 342 202 L 343 204 L 339 206 L 340 208 Q 339 210 338 208 L 336 211 L 338 211 Q 337 213 336 211 L 333 215 L 335 214 L 333 217 L 331 216 L 330 189 L 327 177 L 326 179 L 325 179 L 326 177 L 325 172 L 324 174 L 322 172 L 323 169 L 322 169 L 319 166 L 321 166 L 321 165 L 318 164 L 319 162 L 316 161 L 318 161 L 318 160 L 314 158 L 315 156 Q 314 153 313 155 L 303 146 Q 305 144 303 143 L 301 144 L 298 139 L 296 140 L 295 137 L 293 138 L 291 137 L 290 134 L 288 135 L 288 133 L 286 134 L 286 132 L 284 133 L 284 131 L 282 132 L 280 132 L 282 131 L 280 129 L 277 130 L 275 130 L 277 129 L 277 128 L 274 129 L 271 129 L 274 128 L 274 127 L 270 128 L 268 128 L 270 127 L 262 124 L 257 125 L 253 125 L 257 124 L 257 123 Q 252 122 251 124 L 247 124 L 251 123 L 236 121 L 235 120 L 184 120 Z M 7 170 L 7 171 L 9 171 L 7 170 Z " /><path fill="rgb(128,0,0)" stroke="rgb(128,0,0)" stroke-width="1" opacity="0.00784313725490196" d="M 208.5 62 L 214 62.5 L 208.5 63 L 208.5 62 Z " /><path fill="rgb(128,0,0)" stroke="rgb(128,0,0)" stroke-width="1" opacity="0.00784313725490196" d="M 260.5 62 L 265 62.5 L 260.5 63 L 260.5 62 Z " /><path fill="rgb(128,0,0)" stroke="rgb(128,0,0)" stroke-width="1" opacity="0.00784313725490196" d="M 199.5 63 L 203 63.5 L 199.5 64 L 199.5 63 Z " /><path fill="rgb(128,0,0)" stroke="rgb(128,0,0)" stroke-width="1" opacity="0.00784313725490196" d="M 268.5 63 L 271 63.5 L 268.5 64 L 268.5 63 Z " /><path fill="rgb(128,0,0)" stroke="rgb(128,0,0)" stroke-width="1" opacity="0.00784313725490196" d="M 187.5 65 L 190 65.5 L 187.5 66 L 187.5 65 Z " /><path fill="rgb(128,0,0)" stroke="rgb(128,0,0)" stroke-width="1" opacity="0.00784313725490196" d="M 141.5 92 L 179 92.5 L 141.5 93 L 141.5 92 Z " /><path fill="rgb(128,0,0)" stroke="rgb(128,0,0)" stroke-width="1" opacity="0.00784313725490196" d="M 130.5 93 L 134 93.5 L 130.5 94 L 130.5 93 Z " /><path fill="rgb(128,0,0)" stroke="rgb(128,0,0)" stroke-width="1" opacity="0.00784313725490196" d="M 188.5 93 L 194 93.5 L 188.5 94 L 188.5 93 Z " /><path fill="rgb(128,0,0)" stroke="rgb(128,0,0)" stroke-width="1" opacity="0.00784313725490196" d="M 123.5 94 L 126 94.5 L 123.5 95 L 123.5 94 Z " /><path fill="rgb(128,0,0)" stroke="rgb(128,0,0)" stroke-width="1" opacity="0.00784313725490196" d="M 199.5 94 L 203 94.5 L 199.5 95 L 199.5 94 Z " /><path fill="rgb(128,0,0)" stroke="rgb(128,0,0)" stroke-width="1" opacity="0.00784313725490196" d="M 116.5 95 L 119 95.5 L 116.5 96 L 116.5 95 Z " /><path fill="rgb(128,0,0)" stroke="rgb(128,0,0)" stroke-width="1" opacity="0.00784313725490196" d="M 213.5 96 L 216 96.5 L 213.5 97 L 213.5 96 Z " /><path fill="rgb(128,0,0)" stroke="rgb(128,0,0)" stroke-width="1" opacity="0.00784313725490196" d="M 186.5 121 L 195 121.5 L 186.5 122 L 186.5 121 Z " /><path fill="rgb(128,0,0)" stroke="rgb(128,0,0)" stroke-width="1" opacity="0.00784313725490196" d="M 224.5 121 L 233 121.5 L 224.5 122 L 224.5 121 Z " /><path fill="rgb(128,0,0)" stroke="rgb(128,0,0)" stroke-width="1" opacity="0.00784313725490196" d="M 174.5 122 L 179 122.5 L 174.5 123 L 174.5 122 Z " /><path fill="rgb(128,0,0)" stroke="rgb(128,0,0)" stroke-width="1" opacity="0.00784313725490196" d="M 238.5 122 L 243 122.5 L 238.5 123 L 238.5 122 Z " /><path fill="rgb(128,0,0)" stroke="rgb(128,0,0)" stroke-width="1" opacity="0.00784313725490196" d="M 165.5 123 L 169 123.5 L 165.5 124 L 165.5 123 Z " /><path fill="rgb(128,0,0)" stroke="rgb(128,0,0)" stroke-width="1" opacity="0.00784313725490196" d="M 157.5 124 L 161 124.5 L 157.5 125 L 157.5 124 Z " /><path fill="rgb(128,0,0)" stroke="rgb(128,0,0)" stroke-width="1" opacity="0.00784313725490196" d="M 150.5 125 L 154 125.5 L 150.5 126 L 150.5 125 Z " /><path fill="rgb(128,0,0)" stroke="rgb(128,0,0)" stroke-width="1" opacity="0.00784313725490196" d="M 145.5 126 L 148 126.5 L 145.5 127 L 145.5 126 Z " /><path fill="rgb(128,0,0)" stroke="rgb(128,0,0)" stroke-width="1" opacity="0.00784313725490196" d="M 139.5 127 L 142 127.5 L 139.5 128 L 139.5 127 Z " /><path fill="rgb(128,0,0)" stroke="rgb(128,0,0)" stroke-width="1" opacity="0.00784313725490196" d="M 134.5 128 L 137 128.5 L 134.5 129 L 134.5 128 Z " /><path fill="rgb(128,0,0)" stroke="rgb(128,0,0)" stroke-width="1" opacity="0.00784313725490196" d="M 129.5 129 L 132 129.5 L 129.5 130 L 129.5 129 Z " /><path fill="rgb(128,0,0)" stroke="rgb(128,0,0)" stroke-width="1" opacity="0.00784313725490196" d="M 124.5 130 L 127 130.5 L 124.5 131 L 124.5 130 Z " /><path fill="rgb(128,0,0)" stroke="rgb(128,0,0)" stroke-width="1" opacity="0.00784313725490196" d="M 359.5 150 L 360 152.5 L 359 152.5 L 359.5 150 Z " /><path fill="rgb(128,0,0)" stroke="rgb(128,0,0)" stroke-width="1" opacity="0.00784313725490196" d="M 408.5 155 L 421 155.5 L 408.5 156 L 408.5 155 Z " /><path fill="rgb(128,0,0)" stroke="rgb(128,0,0)" stroke-width="1" opacity="0.00784313725490196" d="M 402.5 156 L 405 156.5 L 402.5 157 L 402.5 156 Z " /><path fill="rgb(128,0,0)" stroke="rgb(128,0,0)" stroke-width="1" opacity="0.00784313725490196" d="M 425.5 156 L 428 156.5 L 425.5 157 L 425.5 156 Z " /><path fill="rgb(128,0,0)" stroke="rgb(128,0,0)" stroke-width="1" opacity="0.00784313725490196" d="M 360.5 158 L 361 164.5 L 360 164.5 L 360.5 158 Z " /><path fill="rgb(128,0,0)" stroke="rgb(128,0,0)" stroke-width="1" opacity="0.00784313725490196" d="M 50.5 166 L 72 166.5 L 50.5 167 L 50.5 166 Z " /><path fill="rgb(128,0,0)" stroke="rgb(128,0,0)" stroke-width="1" opacity="0.00784313725490196" d="M 28.5 167 L 38 167.5 L 28.5 168 L 28.5 167 Z " /><path fill="rgb(128,0,0)" stroke="rgb(128,0,0)" stroke-width="1" opacity="0.00784313725490196" d="M 82.5 167 L 89 167.5 L 82.5 168 L 82.5 167 Z " /><path fill="rgb(128,0,0)" stroke="rgb(128,0,0)" stroke-width="1" opacity="0.00784313725490196" d="M 169.5 167 L 180 167.5 L 169.5 168 L 169.5 167 Z " /><path fill="rgb(128,0,0)" stroke="rgb(128,0,0)" stroke-width="1" opacity="0.00784313725490196" d="M 209.5 167 L 220 167.5 L 209.5 168 L 209.5 167 Z " /><path fill="rgb(128,0,0)" stroke="rgb(128,0,0)" stroke-width="1" opacity="0.00784313725490196" d="M 13.5 168 L 22 168.5 L 13.5 169 L 13.5 168 Z " /><path fill="rgb(128,0,0)" stroke="rgb(128,0,0)" stroke-width="1" opacity="0.00784313725490196" d="M 94.5 168 L 100 168.5 L 94.5 169 L 94.5 168 Z " /><path fill="rgb(128,0,0)" stroke="rgb(128,0,0)" stroke-width="1" opacity="0.00784313725490196" d="M 155.5 168 L 163 168.5 L 155.5 169 L 155.5 168 Z " /><path fill="rgb(128,0,0)" stroke="rgb(128,0,0)" stroke-width="1" opacity="0.00784313725490196" d="M 225.5 168 L 232 168.5 L 225.5 169 L 225.5 168 Z " /><path fill="rgb(128,0,0)" stroke="rgb(128,0,0)" stroke-width="1" opacity="0.00784313725490196" d="M 104.5 169 L 110 169.5 L 104.5 170 L 104.5 169 Z " /><path fill="rgb(128,0,0)" stroke="rgb(128,0,0)" stroke-width="1" opacity="0.00784313725490196" d="M 144.5 169 L 150 169.5 L 144.5 170 L 144.5 169 Z " /><path fill="rgb(128,0,0)" stroke="rgb(128,0,0)" stroke-width="1" opacity="0.00784313725490196" d="M 237.5 169 L 243 169.5 L 237.5 170 L 237.5 169 Z " /><path fill="rgb(128,0,0)" stroke="rgb(128,0,0)" stroke-width="1" opacity="0.00784313725490196" d="M 114.5 170 L 118 170.5 L 114.5 171 L 114.5 170 Z " /><path fill="rgb(128,0,0)" stroke="rgb(128,0,0)" stroke-width="1" opacity="0.00784313725490196" d="M 133.5 170 L 138 170.5 L 133.5 171 L 133.5 170 Z " /><path fill="rgb(128,0,0)" stroke="rgb(128,0,0)" stroke-width="1" opacity="0.00784313725490196" d="M 248.5 170 L 253 170.5 L 248.5 171 L 248.5 170 Z " /><path fill="rgb(128,0,0)" stroke="rgb(128,0,0)" stroke-width="1" opacity="0.00784313725490196" d="M 449.5 170 L 460 170.5 L 449.5 171 L 449.5 170 Z " /><path fill="rgb(128,0,0)" stroke="rgb(128,0,0)" stroke-width="1" opacity="0.00784313725490196" d="M 475.5 170 L 478 170.5 L 475.5 171 L 475.5 170 Z " /><path fill="rgb(128,0,0)" stroke="rgb(128,0,0)" stroke-width="1" opacity="0.00784313725490196" d="M 256.5 171 L 262 171.5 L 256.5 172 L 256.5 171 Z " /><path fill="rgb(128,0,0)" stroke="rgb(128,0,0)" stroke-width="1" opacity="0.00784313725490196" d="M 265.5 172 L 271 172.5 L 265.5 173 L 265.5 172 Z " /><path fill="rgb(128,0,0)" stroke="rgb(128,0,0)" stroke-width="1" opacity="0.00784313725490196" d="M 470.5 172 L 473 172.5 L 470.5 173 L 470.5 172 Z " /><path fill="rgb(128,0,0)" stroke="rgb(128,0,0)" stroke-width="1" opacity="0.00784313725490196" d="M 274.5 173 L 280 173.5 L 274.5 174 L 274.5 173 Z " /><path fill="rgb(128,0,0)" stroke="rgb(128,0,0)" stroke-width="1" opacity="0.00784313725490196" d="M 476.5 173 L 479 173.5 L 476.5 174 L 476.5 173 Z " /><path fill="rgb(128,0,0)" stroke="rgb(128,0,0)" stroke-width="1" opacity="0.00784313725490196" d="M 282.5 174 L 287 174.5 L 282.5 175 L 282.5 174 Z " /><path fill="rgb(128,0,0)" stroke="rgb(128,0,0)" stroke-width="1" opacity="0.00784313725490196" d="M 241.5 175 L 260 175.5 L 241.5 176 L 241.5 175 Z " /><path fill="rgb(128,0,0)" stroke="rgb(128,0,0)" stroke-width="1" opacity="0.00784313725490196" d="M 487.5 175 L 490 175.5 L 487.5 176 L 487.5 175 Z " /><path fill="rgb(128,0,0)" stroke="rgb(128,0,0)" stroke-width="1" opacity="0.00784313725490196" d="M 217.5 176 L 229 176.5 L 217.5 177 L 217.5 176 Z " /><path fill="rgb(128,0,0)" stroke="rgb(128,0,0)" stroke-width="1" opacity="0.00784313725490196" d="M 492.5 176 L 495 176.5 L 492.5 177 L 492.5 176 Z " /><path fill="rgb(128,0,0)" stroke="rgb(128,0,0)" stroke-width="1" opacity="0.00784313725490196" d="M 203.5 177 L 211 177.5 L 203.5 178 L 203.5 177 Z " /><path fill="rgb(128,0,0)" stroke="rgb(128,0,0)" stroke-width="1" opacity="0.00784313725490196" d="M 498.5 177 L 502 177.5 L 498.5 178 L 498.5 177 Z " /><path fill="rgb(128,0,0)" stroke="rgb(128,0,0)" stroke-width="1" opacity="0.00784313725490196" d="M 193.5 178 L 199 178.5 L 193.5 179 L 193.5 178 Z " /><path fill="rgb(128,0,0)" stroke="rgb(128,0,0)" stroke-width="1" opacity="0.00784313725490196" d="M 186.5 179 L 190 179.5 L 186.5 180 L 186.5 179 Z " /><path fill="rgb(128,0,0)" stroke="rgb(128,0,0)" stroke-width="1" opacity="0.00784313725490196" d="M 174.5 181 L 177 181.5 L 174.5 182 L 174.5 181 Z " /><path fill="rgb(128,0,0)" stroke="rgb(128,0,0)" stroke-width="1" opacity="0.00784313725490196" d="M 327.5 184 L 328 186.5 L 327 186.5 L 327.5 184 Z " /><path fill="rgb(128,0,0)" stroke="rgb(128,0,0)" stroke-width="1" opacity="0.00784313725490196" d="M 334.5 185 L 335 187.5 L 334 187.5 L 334.5 185 Z " /><path fill="rgb(128,0,0)" stroke="rgb(128,0,0)" stroke-width="1" opacity="0.00784313725490196" d="M 328.5 189 L 329 192.5 L 328 192.5 L 328.5 189 Z " /><path fill="rgb(128,0,0)" stroke="rgb(128,0,0)" stroke-width="1" opacity="0.00784313725490196" d="M 329.5 198 L 330 218.5 L 329 218.5 L 329.5 198 Z " /><path fill="rgb(128,0,0)" stroke="rgb(128,0,0)" stroke-width="1" opacity="0.00784313725490196" d="M 227.5 210 L 270.5 210 L 273 211.5 L 271.5 212 L 270.5 211 L 227.5 211 L 227.5 210 Z " /><path fill="rgb(128,0,0)" stroke="rgb(128,0,0)" stroke-width="1" opacity="0.00784313725490196" d="M 274.5 210 L 278 210.5 L 274.5 211 L 274.5 210 Z " /><path fill="rgb(128,0,0)" stroke="rgb(128,0,0)" stroke-width="1" opacity="0.00784313725490196" d="M 265.5 212 L 268 212.5 L 265.5 213 L 265.5 212 Z " /><path fill="rgb(128,0,0)" stroke="rgb(128,0,0)" stroke-width="1" opacity="0.00784313725490196" d="M 256.5 214 L 259 214.5 L 256.5 215 L 256.5 214 Z " /><path fill="rgb(128,0,0)" stroke="rgb(128,0,0)" stroke-width="1" opacity="0.00784313725490196" d="M 237.5 218 L 240 218.5 L 237.5 219 L 237.5 218 Z " /><path fill="rgb(128,0,0)" stroke="rgb(128,0,0)" stroke-width="1" opacity="0.00784313725490196" d="M 246.5 274 L 247 280.5 L 246 280.5 L 246.5 274 Z " /><path fill="rgb(128,0,0)" stroke="rgb(128,0,0)" stroke-width="1" opacity="0.00784313725490196" d="M 246.5 295 L 247 302.5 L 246 302.5 L 246.5 295 Z " /><path fill="rgb(128,0,0)" stroke="rgb(128,0,0)" stroke-width="1" opacity="0.00784313725490196" d="M 245.5 307 L 246 309.5 L 245 309.5 L 245.5 307 Z " /><path fill="rgb(128,0,0)" stroke="rgb(128,0,0)" stroke-width="1" opacity="0.00784313725490196" d="M 244.5 312 L 245 314.5 L 244 314.5 L 244.5 312 Z " /><path fill="rgb(128,0,0)" stroke="rgb(128,0,0)" stroke-width="1" opacity="0.00784313725490196" d="M 150.5 455 L 153 455.5 L 150.5 456 L 150.5 455 Z " /><path fill="rgb(128,0,0)" stroke="rgb(128,0,0)" stroke-width="1" opacity="0.00784313725490196" d="M 145.5 456 L 148 456.5 L 145.5 457 L 145.5 456 Z " /><path fill="rgb(128,0,0)" stroke="rgb(128,0,0)" stroke-width="1" opacity="0.00784313725490196" d="M 126.5 459 L 130 459.5 L 126.5 460 L 126.5 459 Z " /><path fill="rgb(128,0,0)" stroke="rgb(128,0,0)" stroke-width="1" opacity="0.00784313725490196" d="M 118.5 460 L 122 460.5 L 118.5 461 L 118.5 460 Z " /><path fill="rgb(128,0,0)" stroke="rgb(128,0,0)" stroke-width="1" opacity="0.00784313725490196" d="M 109.5 461 L 115 461.5 L 109.5 462 L 109.5 461 Z " /><path fill="rgb(128,0,0)" stroke="rgb(128,0,0)" stroke-width="1" opacity="0.00784313725490196" d="M 10.5 480 L 40 492.5 L 27.5 497 L 15.5 484 Q 10.9 482.8 10.5 480 Z " /><path fill="rgb(205,85,42)" stroke="rgb(205,85,42)" stroke-width="1" opacity="0.7529411764705882" d="M 221.5 61 L 226 61.5 L 221.5 62 L 221.5 61 Z " /><path fill="rgb(205,85,42)" stroke="rgb(205,85,42)" stroke-width="1" opacity="0.7529411764705882" d="M 249.5 61 L 253 61.5 L 249.5 62 L 249.5 61 Z " /><path fill="rgb(205,85,42)" stroke="rgb(205,85,42)" stroke-width="1" opacity="0.7529411764705882" d="M 214.5 62 L 220 62.5 L 214.5 63 L 214.5 62 Z " /><path fill="rgb(205,85,42)" stroke="rgb(205,85,42)" stroke-width="1" opacity="0.7529411764705882" d="M 255.5 62 L 260 62.5 L 255.5 63 L 255.5 62 Z " /><path fill="rgb(205,85,42)" stroke="rgb(205,85,42)" stroke-width="1" opacity="0.7529411764705882" d="M 203.5 63 L 207 63.5 L 203.5 64 L 203.5 63 Z " /><path fill="rgb(205,85,42)" stroke="rgb(205,85,42)" stroke-width="1" opacity="0.7529411764705882" d="M 265.5 63 L 268 63.5 L 265.5 64 L 265.5 63 Z " /><path fill="rgb(205,85,42)" stroke="rgb(205,85,42)" stroke-width="1" opacity="0.7529411764705882" d="M 196.5 64 L 199 64.5 L 196.5 65 L 196.5 64 Z " /><path fill="rgb(205,85,42)" stroke="rgb(205,85,42)" stroke-width="1" opacity="0.7529411764705882" d="M 272.5 64 L 275 64.5 L 272.5 65 L 272.5 64 Z " /><path fill="rgb(205,85,42)" stroke="rgb(205,85,42)" stroke-width="1" opacity="0.7529411764705882" d="M 311.5 77 L 312.5 79 L 311.5 77 Z " /><path fill="rgb(205,85,42)" stroke="rgb(205,85,42)" stroke-width="1" opacity="0.7529411764705882" d="M 314.5 79 L 315.5 81 L 314.5 79 Z " /><path fill="rgb(205,85,42)" stroke="rgb(205,85,42)" stroke-width="1" opacity="0.7529411764705882" d="M 318.5 82 L 319.5 84 L 318.5 82 Z " /><path fill="rgb(205,85,42)" stroke="rgb(205,85,42)" stroke-width="1" opacity="0.7529411764705882" d="M 322.5 85 L 325.5 89 L 322.5 85 Z " /><path fill="rgb(205,85,42)" stroke="rgb(205,85,42)" stroke-width="1" opacity="0.7529411764705882" d="M 135.5 92 L 141 92.5 L 135.5 93 L 135.5 92 Z " /><path fill="rgb(205,85,42)" stroke="rgb(205,85,42)" stroke-width="1" opacity="0.7529411764705882" d="M 179.5 92 L 188 92.5 L 179.5 93 L 179.5 92 Z " /><path fill="rgb(205,85,42)" stroke="rgb(205,85,42)" stroke-width="1" opacity="0.7529411764705882" d="M 126.5 93 L 130 93.5 L 126.5 94 L 126.5 93 Z " /><path fill="rgb(205,85,42)" stroke="rgb(205,85,42)" stroke-width="1" opacity="0.7529411764705882" d="M 194.5 93 L 199 93.5 L 194.5 94 L 194.5 93 Z " /><path fill="rgb(205,85,42)" stroke="rgb(205,85,42)" stroke-width="1" opacity="0.7529411764705882" d="M 119.5 94 L 123 94.5 L 119.5 95 L 119.5 94 Z " /><path fill="rgb(205,85,42)" stroke="rgb(205,85,42)" stroke-width="1" opacity="0.7529411764705882" d="M 203.5 94 L 206 94.5 L 203.5 95 L 203.5 94 Z " /><path fill="rgb(205,85,42)" stroke="rgb(205,85,42)" stroke-width="1" opacity="0.7529411764705882" d="M 106.5 95 L 110 96.5 L 107.5 97 L 106.5 95 Z " /><path fill="rgb(205,85,42)" stroke="rgb(205,85,42)" stroke-width="1" opacity="0.7529411764705882" d="M 113.5 95 L 116 95.5 L 113.5 96 L 113.5 95 Z " /><path fill="rgb(205,85,42)" stroke="rgb(205,85,42)" stroke-width="1" opacity="0.7529411764705882" d="M 210.5 95 L 213 95.5 L 210.5 96 L 210.5 95 Z " /><path fill="rgb(205,85,42)" stroke="rgb(205,85,42)" stroke-width="1" opacity="0.7529411764705882" d="M 333.5 96 L 336.5 100 L 333.5 96 Z " /><path fill="rgb(205,85,42)" stroke="rgb(205,85,42)" stroke-width="1" opacity="0.7529411764705882" d="M 221.5 97 L 224 97.5 L 221.5 98 L 221.5 97 Z " /><path fill="rgb(205,85,42)" stroke="rgb(205,85,42)" stroke-width="1" opacity="0.7529411764705882" d="M 338.5 102 L 339.5 104 L 338.5 102 Z " /><path fill="rgb(205,85,42)" stroke="rgb(205,85,42)" stroke-width="1" opacity="0.7529411764705882" d="M 195.5 121 L 224 121.5 L 195.5 122 L 195.5 121 Z " /><path fill="rgb(205,85,42)" stroke="rgb(205,85,42)" stroke-width="1" opacity="0.7529411764705882" d="M 179.5 122 L 186 122.5 L 179.5 123 L 179.5 122 Z " /><path fill="rgb(205,85,42)" stroke="rgb(205,85,42)" stroke-width="1" opacity="0.7529411764705882" d="M 232.5 122 L 238 122.5 L 232.5 123 L 232.5 122 Z " /><path fill="rgb(205,85,42)" stroke="rgb(205,85,42)" stroke-width="1" opacity="0.7529411764705882" d="M 169.5 123 L 174 123.5 L 169.5 124 L 169.5 123 Z " /><path fill="rgb(205,85,42)" stroke="rgb(205,85,42)" stroke-width="1" opacity="0.7529411764705882" d="M 243.5 123 L 247 123.5 L 243.5 124 L 243.5 123 Z " /><path fill="rgb(205,85,42)" stroke="rgb(205,85,42)" stroke-width="1" opacity="0.7529411764705882" d="M 161.5 124 L 165 124.5 L 161.5 125 L 161.5 124 Z " /><path fill="rgb(205,85,42)" stroke="rgb(205,85,42)" stroke-width="1" opacity="0.7529411764705882" d="M 250.5 124 L 253 124.5 L 250.5 125 L 250.5 124 Z " /><path fill="rgb(205,85,42)" stroke="rgb(205,85,42)" stroke-width="1" opacity="0.7529411764705882" d="M 154.5 125 L 157 125.5 L 154.5 126 L 154.5 125 Z " /><path fill="rgb(205,85,42)" stroke="rgb(205,85,42)" stroke-width="1" opacity="0.7529411764705882" d="M 256.5 125 L 259 125.5 L 256.5 126 L 256.5 125 Z " /><path fill="rgb(205,85,42)" stroke="rgb(205,85,42)" stroke-width="1" opacity="0.7529411764705882" d="M 148.5 126 L 151 126.5 L 148.5 127 L 148.5 126 Z " /><path fill="rgb(205,85,42)" stroke="rgb(205,85,42)" stroke-width="1" opacity="0.7529411764705882" d="M 261.5 126 L 264 126.5 L 261.5 127 L 261.5 126 Z " /><path fill="rgb(205,85,42)" stroke="rgb(205,85,42)" stroke-width="1" opacity="0.7529411764705882" d="M 299.5 126 L 300.5 128 L 299.5 126 Z " /><path fill="rgb(205,85,42)" stroke="rgb(205,85,42)" stroke-width="1" opacity="0.7529411764705882" d="M 142.5 127 L 145 127.5 L 142.5 128 L 142.5 127 Z " /><path fill="rgb(205,85,42)" stroke="rgb(205,85,42)" stroke-width="1" opacity="0.7529411764705882" d="M 304.5 130 L 308.5 135 L 304.5 130 Z " /><path fill="rgb(205,85,42)" stroke="rgb(205,85,42)" stroke-width="1" opacity="0.7529411764705882" d="M 117.5 132 L 120 132.5 L 117.5 133 L 117.5 132 Z " /><path fill="rgb(205,85,42)" stroke="rgb(205,85,42)" stroke-width="1" opacity="0.7529411764705882" d="M 311.5 137 L 315.5 142 L 311.5 137 Z " /><path fill="rgb(205,85,42)" stroke="rgb(205,85,42)" stroke-width="1" opacity="0.7529411764705882" d="M 293.5 138 L 294.5 140 L 293.5 138 Z " /><path fill="rgb(205,85,42)" stroke="rgb(205,85,42)" stroke-width="1" opacity="0.7529411764705882" d="M 296.5 140 L 298.5 143 L 296.5 140 Z " /><path fill="rgb(205,85,42)" stroke="rgb(205,85,42)" stroke-width="1" opacity="0.7529411764705882" d="M 301.5 144 L 305.5 149 L 301.5 144 Z " /><path fill="rgb(205,85,42)" stroke="rgb(205,85,42)" stroke-width="1" opacity="0.7529411764705882" d="M 317.5 144 L 318.5 146 L 317.5 144 Z " /><path fill="rgb(205,85,42)" stroke="rgb(205,85,42)" stroke-width="1" opacity="0.7529411764705882" d="M 358.5 147 L 359 149.5 L 358 149.5 L 358.5 147 Z " /><path fill="rgb(205,85,42)" stroke="rgb(205,85,42)" stroke-width="1" opacity="0.7529411764705882" d="M 309.5 152 L 313.5 157 L 309.5 152 Z " /><path fill="rgb(205,85,42)" stroke="rgb(205,85,42)" stroke-width="1" opacity="0.7529411764705882" d="M 359.5 153 L 360 156.5 L 359 156.5 L 359.5 153 Z " /><path fill="rgb(205,85,42)" stroke="rgb(205,85,42)" stroke-width="1" opacity="0.7529411764705882" d="M 405.5 156 L 409 156.5 L 405.5 157 L 405.5 156 Z " /><path fill="rgb(205,85,42)" stroke="rgb(205,85,42)" stroke-width="1" opacity="0.7529411764705882" d="M 421.5 156 L 425 156.5 L 421.5 157 L 421.5 156 Z " /><path fill="rgb(205,85,42)" stroke="rgb(205,85,42)" stroke-width="1" opacity="0.7529411764705882" d="M 314.5 158 L 315.5 160 L 314.5 158 Z " /><path fill="rgb(205,85,42)" stroke="rgb(205,85,42)" stroke-width="1" opacity="0.7529411764705882" d="M 316.5 161 L 317.5 163 L 316.5 161 Z " /><path fill="rgb(205,85,42)" stroke="rgb(205,85,42)" stroke-width="1" opacity="0.7529411764705882" d="M 359.5 165 L 360 167.5 L 359 167.5 L 359.5 165 Z " /><path fill="rgb(205,85,42)" stroke="rgb(205,85,42)" stroke-width="1" opacity="0.7529411764705882" d="M 37.5 166 L 50 166.5 L 37.5 167 L 37.5 166 Z " /><path fill="rgb(205,85,42)" stroke="rgb(205,85,42)" stroke-width="1" opacity="0.7529411764705882" d="M 72.5 166 L 82 166.5 L 72.5 167 L 72.5 166 Z " /><path fill="rgb(205,85,42)" stroke="rgb(205,85,42)" stroke-width="1" opacity="0.7529411764705882" d="M 178.5 166 L 211 166.5 L 178.5 167 L 178.5 166 Z " /><path fill="rgb(205,85,42)" stroke="rgb(205,85,42)" stroke-width="1" opacity="0.7529411764705882" d="M 379.5 166 L 378.5 168 L 379.5 166 Z " /><path fill="rgb(205,85,42)" stroke="rgb(205,85,42)" stroke-width="1" opacity="0.7529411764705882" d="M 9.5 167 L 13 168.5 L 8.5 169 L 9.5 167 Z " /><path fill="rgb(205,85,42)" stroke="rgb(205,85,42)" stroke-width="1" opacity="0.7529411764705882" d="M 21.5 167 L 28 167.5 L 21.5 168 L 21.5 167 Z " /><path fill="rgb(205,85,42)" stroke="rgb(205,85,42)" stroke-width="1" opacity="0.7529411764705882" d="M 89.5 167 L 95 167.5 L 89.5 168 L 89.5 167 Z " /><path fill="rgb(205,85,42)" stroke="rgb(205,85,42)" stroke-width="1" opacity="0.7529411764705882" d="M 162.5 167 L 169 167.5 L 162.5 168 L 162.5 167 Z " /><path fill="rgb(205,85,42)" stroke="rgb(205,85,42)" stroke-width="1" opacity="0.7529411764705882" d="M 220.5 167 L 226 167.5 L 220.5 168 L 220.5 167 Z " /><path fill="rgb(205,85,42)" stroke="rgb(205,85,42)" stroke-width="1" opacity="0.7529411764705882" d="M 100.5 168 L 105 168.5 L 100.5 169 L 100.5 168 Z " /><path fill="rgb(205,85,42)" stroke="rgb(205,85,42)" stroke-width="1" opacity="0.7529411764705882" d="M 149.5 168 L 155 168.5 L 149.5 169 L 149.5 168 Z " /><path fill="rgb(205,85,42)" stroke="rgb(205,85,42)" stroke-width="1" opacity="0.7529411764705882" d="M 232.5 168 L 238 168.5 L 232.5 169 L 232.5 168 Z " /><path fill="rgb(205,85,42)" stroke="rgb(205,85,42)" stroke-width="1" opacity="0.7529411764705882" d="M 320.5 168 L 322 170.5 L 321 170.5 L 320.5 168 Z " /><path fill="rgb(205,85,42)" stroke="rgb(205,85,42)" stroke-width="1" opacity="0.7529411764705882" d="M 376.5 168 L 375.5 170 L 376.5 168 Z " /><path fill="rgb(205,85,42)" stroke="rgb(205,85,42)" stroke-width="1" opacity="0.7529411764705882" d="M 110.5 169 L 114 169.5 L 110.5 170 L 110.5 169 Z " /><path fill="rgb(205,85,42)" stroke="rgb(205,85,42)" stroke-width="1" opacity="0.7529411764705882" d="M 138.5 169 L 144 169.5 L 138.5 170 L 138.5 169 Z " /><path fill="rgb(205,85,42)" stroke="rgb(205,85,42)" stroke-width="1" opacity="0.7529411764705882" d="M 243.5 169 L 248 169.5 L 243.5 170 L 243.5 169 Z " /><path fill="rgb(205,85,42)" stroke="rgb(205,85,42)" stroke-width="1" opacity="0.7529411764705882" d="M 118.5 170 L 122 170.5 L 118.5 171 L 118.5 170 Z " /><path fill="rgb(205,85,42)" stroke="rgb(205,85,42)" stroke-width="1" opacity="0.7529411764705882" d="M 127.5 170 L 133 170.5 L 127.5 171 L 127.5 170 Z " /><path fill="rgb(205,85,42)" stroke="rgb(205,85,42)" stroke-width="1" opacity="0.7529411764705882" d="M 253.5 170 L 257 170.5 L 253.5 171 L 253.5 170 Z " /><path fill="rgb(205,85,42)" stroke="rgb(205,85,42)" stroke-width="1" opacity="0.7529411764705882" d="M 460.5 170 L 464 170.5 L 460.5 171 L 460.5 170 Z " /><path fill="rgb(205,85,42)" stroke="rgb(205,85,42)" stroke-width="1" opacity="0.7529411764705882" d="M 262.5 171 L 266 171.5 L 262.5 172 L 262.5 171 Z " /><path fill="rgb(205,85,42)" stroke="rgb(205,85,42)" stroke-width="1" opacity="0.7529411764705882" d="M 372.5 171 L 370.5 174 L 372.5 171 Z " /><path fill="rgb(205,85,42)" stroke="rgb(205,85,42)" stroke-width="1" opacity="0.7529411764705882" d="M 467.5 171 L 470 171.5 L 467.5 172 L 467.5 171 Z " /><path fill="rgb(205,85,42)" stroke="rgb(205,85,42)" stroke-width="1" opacity="0.7529411764705882" d="M 271.5 172 L 275 172.5 L 271.5 173 L 271.5 172 Z " /><path fill="rgb(205,85,42)" stroke="rgb(205,85,42)" stroke-width="1" opacity="0.7529411764705882" d="M 473.5 172 L 476 172.5 L 473.5 173 L 473.5 172 Z " /><path fill="rgb(205,85,42)" stroke="rgb(205,85,42)" stroke-width="1" opacity="0.7529411764705882" d="M 280.5 173 L 284 173.5 L 280.5 174 L 280.5 173 Z " /><path fill="rgb(205,85,42)" stroke="rgb(205,85,42)" stroke-width="1" opacity="0.7529411764705882" d="M 441.5 173 L 440.5 175 L 441.5 173 Z " /><path fill="rgb(205,85,42)" stroke="rgb(205,85,42)" stroke-width="1" opacity="0.7529411764705882" d="M 479.5 173 L 482 173.5 L 479.5 174 L 479.5 173 Z " /><path fill="rgb(205,85,42)" stroke="rgb(205,85,42)" stroke-width="1" opacity="0.7529411764705882" d="M 487.5 173 L 490 173.5 L 484.5 175 L 484.5 174 L 487.5 173 Z " /><path fill="rgb(205,85,42)" stroke="rgb(205,85,42)" stroke-width="1" opacity="0.7529411764705882" d="M 287.5 174 L 291 174.5 L 287.5 175 L 287.5 174 Z " /><path fill="rgb(205,85,42)" stroke="rgb(205,85,42)" stroke-width="1" opacity="0.7529411764705882" d="M 492.5 174 L 495 174.5 L 490.5 176 L 490.5 175 L 492.5 174 Z " /><path fill="rgb(205,85,42)" stroke="rgb(205,85,42)" stroke-width="1" opacity="0.7529411764705882" d="M 260.5 175 L 284 175.5 L 260.5 176 L 260.5 175 Z " /><path fill="rgb(205,85,42)" stroke="rgb(205,85,42)" stroke-width="1" opacity="0.7529411764705882" d="M 498.5 175 L 500 175.5 L 495.5 177 L 495.5 176 L 498.5 175 Z " /><path fill="rgb(205,85,42)" stroke="rgb(205,85,42)" stroke-width="1" opacity="0.7529411764705882" d="M 229.5 176 L 243 176.5 L 229.5 177 L 229.5 176 Z " /><path fill="rgb(205,85,42)" stroke="rgb(205,85,42)" stroke-width="1" opacity="0.7529411764705882" d="M 366.5 176 L 356.5 187 L 366.5 176 Z " /><path fill="rgb(205,85,42)" stroke="rgb(205,85,42)" stroke-width="1" opacity="0.7529411764705882" d="M 503.5 176 L 506 177.5 L 502.5 178 L 503.5 176 Z " /><path fill="rgb(205,85,42)" stroke="rgb(205,85,42)" stroke-width="1" opacity="0.7529411764705882" d="M 211.5 177 L 219 177.5 L 211.5 178 L 211.5 177 Z " /><path fill="rgb(205,85,42)" stroke="rgb(205,85,42)" stroke-width="1" opacity="0.7529411764705882" d="M 199.5 178 L 204 178.5 L 199.5 179 L 199.5 178 Z " /><path fill="rgb(205,85,42)" stroke="rgb(205,85,42)" stroke-width="1" opacity="0.7529411764705882" d="M 190.5 179 L 194 179.5 L 190.5 180 L 190.5 179 Z " /><path fill="rgb(205,85,42)" stroke="rgb(205,85,42)" stroke-width="1" opacity="0.7529411764705882" d="M 353.5 179 L 352.5 181 L 353.5 179 Z " /><path fill="rgb(205,85,42)" stroke="rgb(205,85,42)" stroke-width="1" opacity="0.7529411764705882" d="M 183.5 180 L 186 180.5 L 183.5 181 L 183.5 180 Z " /><path fill="rgb(205,85,42)" stroke="rgb(205,85,42)" stroke-width="1" opacity="0.7529411764705882" d="M 434.5 180 L 433.5 182 L 434.5 180 Z " /><path fill="rgb(205,85,42)" stroke="rgb(205,85,42)" stroke-width="1" opacity="0.7529411764705882" d="M 177.5 181 L 180 181.5 L 177.5 182 L 177.5 181 Z " /><path fill="rgb(205,85,42)" stroke="rgb(205,85,42)" stroke-width="1" opacity="0.7529411764705882" d="M 171.5 182 L 174 182.5 L 170.5 184 L 171.5 182 Z " /><path fill="rgb(205,85,42)" stroke="rgb(205,85,42)" stroke-width="1" opacity="0.7529411764705882" d="M 334.5 182 L 335 184.5 L 334 184.5 L 334.5 182 Z " /><path fill="rgb(205,85,42)" stroke="rgb(205,85,42)" stroke-width="1" opacity="0.7529411764705882" d="M 432.5 183 L 431.5 185 L 432.5 183 Z " /><path fill="rgb(205,85,42)" stroke="rgb(205,85,42)" stroke-width="1" opacity="0.7529411764705882" d="M 349.5 184 L 338.5 196 L 349.5 184 Z " /><path fill="rgb(205,85,42)" stroke="rgb(205,85,42)" stroke-width="1" opacity="0.7529411764705882" d="M 430.5 186 L 429.5 188 L 430.5 186 Z " /><path fill="rgb(205,85,42)" stroke="rgb(205,85,42)" stroke-width="1" opacity="0.7529411764705882" d="M 177.5 187 L 178.5 189 L 177.5 187 Z " /><path fill="rgb(205,85,42)" stroke="rgb(205,85,42)" stroke-width="1" opacity="0.7529411764705882" d="M 335.5 188 L 336 192.5 L 335 192.5 L 335.5 188 Z " /><path fill="rgb(205,85,42)" stroke="rgb(205,85,42)" stroke-width="1" opacity="0.7529411764705882" d="M 352.5 191 L 350.5 194 L 352.5 191 Z " /><path fill="rgb(205,85,42)" stroke="rgb(205,85,42)" stroke-width="1" opacity="0.7529411764705882" d="M 185.5 192 L 186.5 194 L 185.5 192 Z " /><path fill="rgb(205,85,42)" stroke="rgb(205,85,42)" stroke-width="1" opacity="0.7529411764705882" d="M 328.5 193 L 329 198.5 L 328 198.5 L 328.5 193 Z " /><path fill="rgb(205,85,42)" stroke="rgb(205,85,42)" stroke-width="1" opacity="0.7529411764705882" d="M 188.5 194 L 189.5 196 L 188.5 194 Z " /><path fill="rgb(205,85,42)" stroke="rgb(205,85,42)" stroke-width="1" opacity="0.7529411764705882" d="M 191.5 196 L 192.5 198 L 191.5 196 Z " /><path fill="rgb(205,85,42)" stroke="rgb(205,85,42)" stroke-width="1" opacity="0.7529411764705882" d="M 348.5 196 L 346.5 199 L 348.5 196 Z " /><path fill="rgb(205,85,42)" stroke="rgb(205,85,42)" stroke-width="1" opacity="0.7529411764705882" d="M 195.5 199 L 196.5 201 L 195.5 199 Z " /><path fill="rgb(205,85,42)" stroke="rgb(205,85,42)" stroke-width="1" opacity="0.7529411764705882" d="M 198.5 201 L 200.5 204 L 198.5 201 Z " /><path fill="rgb(205,85,42)" stroke="rgb(205,85,42)" stroke-width="1" opacity="0.7529411764705882" d="M 344.5 201 L 343.5 203 L 344.5 201 Z " /><path fill="rgb(205,85,42)" stroke="rgb(205,85,42)" stroke-width="1" opacity="0.7529411764705882" d="M 203.5 205 L 205.5 208 L 203.5 205 Z " /><path fill="rgb(205,85,42)" stroke="rgb(205,85,42)" stroke-width="1" opacity="0.7529411764705882" d="M 341.5 205 L 340.5 207 L 341.5 205 Z " /><path fill="rgb(205,85,42)" stroke="rgb(205,85,42)" stroke-width="1" opacity="0.7529411764705882" d="M 339.5 208 L 338.5 210 L 339.5 208 Z " /><path fill="rgb(205,85,42)" stroke="rgb(205,85,42)" stroke-width="1" opacity="0.7529411764705882" d="M 274.5 209 Q 281.4 207 280 211 L 274.5 210 L 274.5 209 Z " /><path fill="rgb(205,85,42)" stroke="rgb(205,85,42)" stroke-width="1" opacity="0.7529411764705882" d="M 213.5 210 L 227 210.5 L 213.5 211 L 213.5 210 Z " /><path fill="rgb(205,85,42)" stroke="rgb(205,85,42)" stroke-width="1" opacity="0.7529411764705882" d="M 268.5 212 L 271 212.5 L 268.5 213 L 268.5 212 Z " /><path fill="rgb(205,85,42)" stroke="rgb(205,85,42)" stroke-width="1" opacity="0.7529411764705882" d="M 336.5 212 L 335.5 214 L 336.5 212 Z " /><path fill="rgb(205,85,42)" stroke="rgb(205,85,42)" stroke-width="1" opacity="0.7529411764705882" d="M 263.5 213 L 266 213.5 L 263.5 214 L 263.5 213 Z " /><path fill="rgb(205,85,42)" stroke="rgb(205,85,42)" stroke-width="1" opacity="0.7529411764705882" d="M 249.5 216 L 252 216.5 L 249.5 217 L 249.5 216 Z " /><path fill="rgb(205,85,42)" stroke="rgb(205,85,42)" stroke-width="1" opacity="0.7529411764705882" d="M 333.5 216 L 330.5 220 L 329 219.5 L 333.5 216 Z " /><path fill="rgb(205,85,42)" stroke="rgb(205,85,42)" stroke-width="1" opacity="0.7529411764705882" d="M 244.5 217 L 247 217.5 L 244.5 218 L 244.5 217 Z " /><path fill="rgb(205,85,42)" stroke="rgb(205,85,42)" stroke-width="1" opacity="0.7529411764705882" d="M 230.5 220 L 233 220.5 L 230.5 221 L 230.5 220 Z " /><path fill="rgb(205,85,42)" stroke="rgb(205,85,42)" stroke-width="1" opacity="0.7529411764705882" d="M 225.5 221 L 228 221.5 L 225.5 222 L 225.5 221 Z " /><path fill="rgb(205,85,42)" stroke="rgb(205,85,42)" stroke-width="1" opacity="0.7529411764705882" d="M 222.5 224 L 225.5 228 L 222.5 224 Z " /><path fill="rgb(205,85,42)" stroke="rgb(205,85,42)" stroke-width="1" opacity="0.7529411764705882" d="M 227.5 230 L 228.5 232 L 227.5 230 Z " /><path fill="rgb(205,85,42)" stroke="rgb(205,85,42)" stroke-width="1" opacity="0.7529411764705882" d="M 229.5 233 L 230.5 235 L 229.5 233 Z " /><path fill="rgb(205,85,42)" stroke="rgb(205,85,42)" stroke-width="1" opacity="0.7529411764705882" d="M 231.5 236 L 232.5 238 L 231.5 236 Z " /><path fill="rgb(205,85,42)" stroke="rgb(205,85,42)" stroke-width="1" opacity="0.7529411764705882" d="M 234.5 241 L 235.5 243 L 234.5 241 Z " /><path fill="rgb(205,85,42)" stroke="rgb(205,85,42)" stroke-width="1" opacity="0.7529411764705882" d="M 246.5 271 L 247 273.5 L 246 273.5 L 246.5 271 Z " /><path fill="rgb(205,85,42)" stroke="rgb(205,85,42)" stroke-width="1" opacity="0.7529411764705882" d="M 247.5 281 L 248 294.5 L 247 294.5 L 247.5 281 Z " /><path fill="rgb(205,85,42)" stroke="rgb(205,85,42)" stroke-width="1" opacity="0.7529411764705882" d="M 387.5 297 L 386.5 299 L 387.5 297 Z " /><path fill="rgb(205,85,42)" stroke="rgb(205,85,42)" stroke-width="1" opacity="0.7529411764705882" d="M 246.5 303 L 247 306.5 L 246 306.5 L 246.5 303 Z " /><path fill="rgb(205,85,42)" stroke="rgb(205,85,42)" stroke-width="1" opacity="0.7529411764705882" d="M 381.5 308 L 380.5 310 L 381.5 308 Z " /><path fill="rgb(205,85,42)" stroke="rgb(205,85,42)" stroke-width="1" opacity="0.7529411764705882" d="M 377.5 315 L 376.5 317 L 377.5 315 Z " /><path fill="rgb(205,85,42)" stroke="rgb(205,85,42)" stroke-width="1" opacity="0.7529411764705882" d="M 369.5 327 L 368.5 329 L 369.5 327 Z " /><path fill="rgb(205,85,42)" stroke="rgb(205,85,42)" stroke-width="1" opacity="0.7529411764705882" d="M 367.5 330 L 366.5 332 L 367.5 330 Z " /><path fill="rgb(205,85,42)" stroke="rgb(205,85,42)" stroke-width="1" opacity="0.7529411764705882" d="M 364.5 334 L 363.5 336 L 364.5 334 Z " /><path fill="rgb(205,85,42)" stroke="rgb(205,85,42)" stroke-width="1" opacity="0.7529411764705882" d="M 362.5 337 L 360.5 340 L 362.5 337 Z " /><path fill="rgb(205,85,42)" stroke="rgb(205,85,42)" stroke-width="1" opacity="0.7529411764705882" d="M 359.5 341 L 357.5 344 L 359.5 341 Z " /><path fill="rgb(205,85,42)" stroke="rgb(205,85,42)" stroke-width="1" opacity="0.7529411764705882" d="M 355.5 346 L 353.5 349 L 355.5 346 Z " /><path fill="rgb(205,85,42)" stroke="rgb(205,85,42)" stroke-width="1" opacity="0.7529411764705882" d="M 350.5 352 L 346.5 357 L 350.5 352 Z " /><path fill="rgb(205,85,42)" stroke="rgb(205,85,42)" stroke-width="1" opacity="0.7529411764705882" d="M 229.5 354 L 228.5 356 L 229.5 354 Z " /><path fill="rgb(205,85,42)" stroke="rgb(205,85,42)" stroke-width="1" opacity="0.7529411764705882" d="M 224.5 363 L 223.5 365 L 224.5 363 Z " /><path fill="rgb(205,85,42)" stroke="rgb(205,85,42)" stroke-width="1" opacity="0.7529411764705882" d="M 333.5 369 L 328.5 375 L 333.5 369 Z " /><path fill="rgb(205,85,42)" stroke="rgb(205,85,42)" stroke-width="1" opacity="0.7529411764705882" d="M 219.5 371 L 218.5 373 L 219.5 371 Z " /><path fill="rgb(205,85,42)" stroke="rgb(205,85,42)" stroke-width="1" opacity="0.7529411764705882" d="M 217.5 374 L 216.5 376 L 217.5 374 Z " /><path fill="rgb(205,85,42)" stroke="rgb(205,85,42)" stroke-width="1" opacity="0.7529411764705882" d="M 214.5 378 L 213.5 380 L 214.5 378 Z " /><path fill="rgb(205,85,42)" stroke="rgb(205,85,42)" stroke-width="1" opacity="0.7529411764705882" d="M 323.5 378 L 320.5 382 L 323.5 378 Z " /><path fill="rgb(205,85,42)" stroke="rgb(205,85,42)" stroke-width="1" opacity="0.7529411764705882" d="M 211.5 382 L 209.5 385 L 211.5 382 Z " /><path fill="rgb(205,85,42)" stroke="rgb(205,85,42)" stroke-width="1" opacity="0.7529411764705882" d="M 317.5 383 L 316.5 385 L 317.5 383 Z " /><path fill="rgb(205,85,42)" stroke="rgb(205,85,42)" stroke-width="1" opacity="0.7529411764705882" d="M 313.5 386 L 312.5 388 L 313.5 386 Z " /><path fill="rgb(205,85,42)" stroke="rgb(205,85,42)" stroke-width="1" opacity="0.7529411764705882" d="M 207.5 387 L 205.5 390 L 207.5 387 Z " /><path fill="rgb(205,85,42)" stroke="rgb(205,85,42)" stroke-width="1" opacity="0.7529411764705882" d="M 309.5 389 L 308.5 391 L 309.5 389 Z " /><path fill="rgb(205,85,42)" stroke="rgb(205,85,42)" stroke-width="1" opacity="0.7529411764705882" d="M 306.5 391 L 305.5 393 L 306.5 391 Z " /><path fill="rgb(205,85,42)" stroke="rgb(205,85,42)" stroke-width="1" opacity="0.7529411764705882" d="M 202.5 393 L 199.5 397 L 202.5 393 Z " /><path fill="rgb(205,85,42)" stroke="rgb(205,85,42)" stroke-width="1" opacity="0.7529411764705882" d="M 299.5 396 L 298.5 398 L 299.5 396 Z " /><path fill="rgb(205,85,42)" stroke="rgb(205,85,42)" stroke-width="1" opacity="0.7529411764705882" d="M 296.5 398 L 295.5 400 L 296.5 398 Z " /><path fill="rgb(205,85,42)" stroke="rgb(205,85,42)" stroke-width="1" opacity="0.7529411764705882" d="M 195.5 401 L 182.5 415 L 195.5 401 Z " /><path fill="rgb(205,85,42)" stroke="rgb(205,85,42)" stroke-width="1" opacity="0.7529411764705882" d="M 288.5 403 L 287.5 405 L 288.5 403 Z " /><path fill="rgb(205,85,42)" stroke="rgb(205,85,42)" stroke-width="1" opacity="0.7529411764705882" d="M 283.5 406 L 282.5 408 L 283.5 406 Z " /><path fill="rgb(205,85,42)" stroke="rgb(205,85,42)" stroke-width="1" opacity="0.7529411764705882" d="M 177.5 418 L 174.5 422 L 177.5 418 Z " /><path fill="rgb(205,85,42)" stroke="rgb(205,85,42)" stroke-width="1" opacity="0.7529411764705882" d="M 170.5 424 L 168.5 427 L 170.5 424 Z " /><path fill="rgb(205,85,42)" stroke="rgb(205,85,42)" stroke-width="1" opacity="0.7529411764705882" d="M 165.5 428 L 163.5 431 L 165.5 428 Z " /><path fill="rgb(205,85,42)" stroke="rgb(205,85,42)" stroke-width="1" opacity="0.7529411764705882" d="M 160.5 432 L 159.5 434 L 160.5 432 Z " /><path fill="rgb(205,85,42)" stroke="rgb(205,85,42)" stroke-width="1" opacity="0.7529411764705882" d="M 156.5 435 L 155.5 437 L 156.5 435 Z " /><path fill="rgb(205,85,42)" stroke="rgb(205,85,42)" stroke-width="1" opacity="0.7529411764705882" d="M 153.5 437 L 152.5 439 L 153.5 437 Z " /><path fill="rgb(205,85,42)" stroke="rgb(205,85,42)" stroke-width="1" opacity="0.7529411764705882" d="M 150.5 439 L 149.5 441 L 150.5 439 Z " /><path fill="rgb(205,85,42)" stroke="rgb(205,85,42)" stroke-width="1" opacity="0.7529411764705882" d="M 157.5 453 L 160 453.5 L 157.5 454 L 157.5 453 Z " /><path fill="rgb(205,85,42)" stroke="rgb(205,85,42)" stroke-width="1" opacity="0.7529411764705882" d="M 142.5 456 L 145 456.5 L 142.5 457 L 142.5 456 Z " /><path fill="rgb(205,85,42)" stroke="rgb(205,85,42)" stroke-width="1" opacity="0.7529411764705882" d="M 136.5 457 L 139 457.5 L 136.5 458 L 136.5 457 Z " /><path fill="rgb(205,85,42)" stroke="rgb(205,85,42)" stroke-width="1" opacity="0.7529411764705882" d="M 130.5 458 L 133 458.5 L 130.5 459 L 130.5 458 Z " /><path fill="rgb(205,85,42)" stroke="rgb(205,85,42)" stroke-width="1" opacity="0.7529411764705882" d="M 122.5 459 L 126 459.5 L 122.5 460 L 122.5 459 Z " /><path fill="rgb(205,85,42)" stroke="rgb(205,85,42)" stroke-width="1" opacity="0.7529411764705882" d="M 102.5 460 L 109 461.5 L 101.5 462 L 102.5 460 Z " /><path fill="rgb(205,85,42)" stroke="rgb(205,85,42)" stroke-width="1" opacity="0.7529411764705882" d="M 114.5 460 L 118 460.5 L 114.5 461 L 114.5 460 Z " /><path fill="rgb(243,97,54)" stroke="rgb(243,97,54)" stroke-width="1" opacity="0.996078431372549" d="M 186.5 122 L 190 122.5 L 186.5 123 L 186.5 122 Z " /><path fill="rgb(243,97,54)" stroke="rgb(243,97,54)" stroke-width="1" opacity="0.996078431372549" d="M 229.5 122 L 232 122.5 L 229.5 123 L 229.5 122 Z " /><path fill="rgb(243,97,54)" stroke="rgb(243,97,54)" stroke-width="1" opacity="0.996078431372549" d="M 306.5 149 L 308.5 152 L 306.5 149 Z " /><path fill="rgb(243,97,54)" stroke="rgb(243,97,54)" stroke-width="1" opacity="0.996078431372549" d="M 409.5 156 L 413 156.5 L 409.5 157 L 409.5 156 Z " /><path fill="rgb(243,97,54)" stroke="rgb(243,97,54)" stroke-width="1" opacity="0.996078431372549" d="M 418.5 156 L 421 156.5 L 418.5 157 L 418.5 156 Z " /><path fill="rgb(243,97,54)" stroke="rgb(243,97,54)" stroke-width="1" opacity="0.996078431372549" d="M 33.5 166 L 37 166.5 L 33.5 167 L 33.5 166 Z " /><path fill="rgb(243,97,54)" stroke="rgb(243,97,54)" stroke-width="1" opacity="0.996078431372549" d="M 82.5 166 L 85 166.5 L 82.5 167 L 82.5 166 Z " /><path fill="rgb(243,97,54)" stroke="rgb(243,97,54)" stroke-width="1" opacity="0.996078431372549" d="M 174.5 166 L 178 166.5 L 174.5 167 L 174.5 166 Z " /><path fill="rgb(243,97,54)" stroke="rgb(243,97,54)" stroke-width="1" opacity="0.996078431372549" d="M 211.5 166 L 215 166.5 L 211.5 167 L 211.5 166 Z " /><path fill="rgb(243,97,54)" stroke="rgb(243,97,54)" stroke-width="1" opacity="0.996078431372549" d="M 18.5 167 L 21 167.5 L 18.5 168 L 18.5 167 Z " /><path fill="rgb(243,97,54)" stroke="rgb(243,97,54)" stroke-width="1" opacity="0.996078431372549" d="M 159.5 167 L 162 167.5 L 159.5 168 L 159.5 167 Z " /><path fill="rgb(243,97,54)" stroke="rgb(243,97,54)" stroke-width="1" opacity="0.996078431372549" d="M 226.5 167 L 229 167.5 L 226.5 168 L 226.5 167 Z " /><path fill="rgb(243,97,54)" stroke="rgb(243,97,54)" stroke-width="1" opacity="0.996078431372549" d="M 450.5 169 L 458 169.5 L 450.5 170 L 450.5 169 Z " /><path fill="rgb(243,97,54)" stroke="rgb(243,97,54)" stroke-width="1" opacity="0.996078431372549" d="M 472.5 170 L 471.5 172 L 470 171.5 L 472.5 170 Z " /><path fill="rgb(243,97,54)" stroke="rgb(243,97,54)" stroke-width="1" opacity="0.996078431372549" d="M 477.5 171 L 476.5 173 L 477.5 171 Z " /><path fill="rgb(243,97,54)" stroke="rgb(243,97,54)" stroke-width="1" opacity="0.996078431372549" d="M 486.5 173 L 487.5 175 L 486.5 173 Z " /><path fill="rgb(243,97,54)" stroke="rgb(243,97,54)" stroke-width="1" opacity="0.996078431372549" d="M 291.5 174 L 292 176 L 284 175.5 L 291.5 174 Z " /><path fill="rgb(243,97,54)" stroke="rgb(243,97,54)" stroke-width="1" opacity="0.996078431372549" d="M 369.5 174 L 368.5 176 L 369.5 174 Z " /><path fill="rgb(243,97,54)" stroke="rgb(243,97,54)" stroke-width="1" opacity="0.996078431372549" d="M 438.5 175 L 435.5 179 L 438.5 175 Z " /><path fill="rgb(243,97,54)" stroke="rgb(243,97,54)" stroke-width="1" opacity="0.996078431372549" d="M 497.5 175 L 498.5 177 L 497.5 175 Z " /><path fill="rgb(243,97,54)" stroke="rgb(243,97,54)" stroke-width="1" opacity="0.996078431372549" d="M 243.5 176 L 251 176.5 L 243.5 177 L 243.5 176 Z " /><path fill="rgb(243,97,54)" stroke="rgb(243,97,54)" stroke-width="1" opacity="0.996078431372549" d="M 219.5 177 L 223 177.5 L 219.5 178 L 219.5 177 Z " /><path fill="rgb(243,97,54)" stroke="rgb(243,97,54)" stroke-width="1" opacity="0.996078431372549" d="M 204.5 178 L 207 178.5 L 204.5 179 L 204.5 178 Z " /><path fill="rgb(243,97,54)" stroke="rgb(243,97,54)" stroke-width="1" opacity="0.996078431372549" d="M 355.5 188 L 353.5 191 L 355.5 188 Z " /><path fill="rgb(243,97,54)" stroke="rgb(243,97,54)" stroke-width="1" opacity="0.996078431372549" d="M 328.5 199 L 329 217.5 L 328 217.5 L 328.5 199 Z " /><path fill="rgb(243,97,54)" stroke="rgb(243,97,54)" stroke-width="1" opacity="0.996078431372549" d="M 346.5 199 L 345.5 201 L 346.5 199 Z " /><path fill="rgb(243,97,54)" stroke="rgb(243,97,54)" stroke-width="1" opacity="0.996078431372549" d="M 255.5 209 L 274 209.5 L 255.5 210 L 255.5 209 Z " /><path fill="rgb(243,97,54)" stroke="rgb(243,97,54)" stroke-width="1" opacity="0.996078431372549" d="M 247.5 277 L 248 280.5 L 247 280.5 L 247.5 277 Z " /><path fill="rgb(243,97,54)" stroke="rgb(243,97,54)" stroke-width="1" opacity="0.996078431372549" d="M 247.5 295 L 248 298.5 L 247 298.5 L 247.5 295 Z " /><path fill="rgb(243,97,54)" stroke="rgb(243,97,54)" stroke-width="1" opacity="0.996078431372549" d="M 352.5 349 L 351.5 351 L 352.5 349 Z " /><path fill="rgb(243,97,54)" stroke="rgb(243,97,54)" stroke-width="1" opacity="0.996078431372549" d="M 345.5 357 L 334.5 369 L 345.5 357 Z " /><path fill="rgb(243,97,54)" stroke="rgb(243,97,54)" stroke-width="1" opacity="0.996078431372549" d="M 325.5 376 L 324.5 378 L 325.5 376 Z " /><path fill="rgb(243,97,54)" stroke="rgb(243,97,54)" stroke-width="1" opacity="0.996078431372549" d="M 319.5 381 L 318.5 383 L 319.5 381 Z " /><path fill="rgb(243,97,54)" stroke="rgb(243,97,54)" stroke-width="1" opacity="0.996078431372549" d="M 209.5 385 L 208.5 387 L 209.5 385 Z " /><path fill="rgb(243,97,54)" stroke="rgb(243,97,54)" stroke-width="1" opacity="0.996078431372549" d="M 204.5 391 L 203.5 393 L 204.5 391 Z " /><path fill="rgb(243,97,54)" stroke="rgb(243,97,54)" stroke-width="1" opacity="0.996078431372549" d="M 198.5 398 L 196.5 401 L 198.5 398 Z " /><path fill="rgb(243,97,54)" stroke="rgb(243,97,54)" stroke-width="1" opacity="0.996078431372549" d="M 181.5 415 L 179.5 418 L 181.5 415 Z " /><path fill="rgb(243,97,54)" stroke="rgb(243,97,54)" stroke-width="1" opacity="0.996078431372549" d="M 173.5 422 L 172.5 424 L 173.5 422 Z " /><path fill="rgb(243,97,54)" stroke="rgb(243,97,54)" stroke-width="1" opacity="0.996078431372549" d="M 167.5 427 L 166.5 429 L 167.5 427 Z " /><path fill="rgb(243,97,54)" stroke="rgb(243,97,54)" stroke-width="1" opacity="1" d="M 190.5 122 L 228.5 122 L 229.5 123 L 248.5 124 L 268.5 128 Q 297.1 135.9 313 156.5 Q 321.3 167.2 326 181.5 L 328 191.5 L 328 217.5 L 329 220 L 335 215.5 Q 348.8 193.3 367.5 176 Q 378.5 166 393.5 160 L 403.5 157 L 417.5 156 L 434.5 159 Q 455.1 168.9 482 172.5 L 477.5 173 L 465.5 170 L 450.5 169 Q 440.4 171.4 435 178.5 L 425 194.5 L 399 272.5 L 384 303.5 Q 361.2 345.7 326.5 376 Q 289 408.5 238.5 428 L 199.5 442 L 160.5 453 L 134.5 458 L 104.5 461 L 104.5 460 L 126.5 453 L 151.5 440 Q 177.9 421.9 199 398.5 Q 222.9 372.9 238 338.5 Q 244 324.5 247 307.5 L 248 277.5 L 242 254.5 Q 234.8 236.2 222 223.5 L 224.5 222 L 281 211 L 280.5 209 L 255.5 209 L 254.5 210 L 210.5 210 Q 192.7 195.3 172 183.5 L 181.5 181 L 195.5 180 L 196.5 179 L 206.5 179 L 207.5 178 L 250.5 177 L 251.5 176 L 292 176 Q 293.4 172 286.5 174 L 285.5 173 L 277.5 173 L 276.5 172 L 268.5 172 L 267.5 171 L 259.5 171 L 249.5 169 L 240.5 169 L 239.5 168 L 229.5 168 L 228.5 167 L 215.5 167 L 214.5 166 L 174.5 166 L 173.5 167 L 159.5 167 L 158.5 168 L 147.5 168 L 146.5 169 L 136.5 169 L 135.5 170 L 125.5 170 L 124.5 171 L 123.5 170 L 97.5 168 L 96.5 167 L 85.5 167 L 84.5 166 L 33.5 166 L 32.5 167 L 11.5 168 L 11.5 167 L 45.5 153 L 91.5 139 L 146.5 127 L 166.5 125 L 167.5 124 L 175.5 124 L 176.5 123 L 189.5 123 L 190.5 122 Z " /><path fill="rgb(243,97,54)" stroke="rgb(243,97,54)" stroke-width="1" opacity="1" d="M 483.5 173 L 486 173.5 L 483.5 174 L 483.5 173 Z " /><path fill="rgb(243,97,54)" stroke="rgb(243,97,54)" stroke-width="1" opacity="1" d="M 488.5 174 L 492 174.5 L 488.5 175 L 488.5 174 Z " /><path fill="rgb(243,97,54)" stroke="rgb(243,97,54)" stroke-width="1" opacity="1" d="M 493.5 175 L 497 175.5 L 493.5 176 L 493.5 175 Z " /><path fill="rgb(243,97,54)" stroke="rgb(243,97,54)" stroke-width="1" opacity="1" d="M 499.5 176 L 502 176.5 L 499.5 177 L 499.5 176 Z " /></svg>